<mxfile host="app.diagrams.net" modified="2023-08-10T03:20:04.674Z" agent="Mozilla/5.0 (Windows NT 10.0; Win64; x64) AppleWebKit/537.36 (KHTML, like Gecko) Chrome/115.0.0.0 Safari/537.36 Edg/115.0.1901.188" etag="bhj7a99xhd8NCc3hSvt_" version="21.2.9" type="github">
  <diagram id="Jubh0BLsUOjBuWiVA9pH" name="第 1 页">
    <mxGraphModel dx="1779" dy="388" grid="1" gridSize="10" guides="1" tooltips="1" connect="1" arrows="1" fold="1" page="0" pageScale="1" pageWidth="827" pageHeight="1169" math="0" shadow="0">
      <root>
        <mxCell id="0" />
        <mxCell id="1" parent="0" />
        <mxCell id="_0fTlHpZT7rrA8FKsUC9-1" value="&lt;font style=&quot;font-size: 16px;&quot;&gt;多媒体文件/容器&lt;/font&gt;" style="swimlane;whiteSpace=wrap;html=1;startSize=40;" parent="1" vertex="1">
          <mxGeometry x="-120" y="520" width="200" height="210" as="geometry" />
        </mxCell>
        <mxCell id="_0fTlHpZT7rrA8FKsUC9-2" value="媒体流（音频）" style="rounded=0;whiteSpace=wrap;html=1;" parent="_0fTlHpZT7rrA8FKsUC9-1" vertex="1">
          <mxGeometry y="40" width="200" height="40" as="geometry" />
        </mxCell>
        <mxCell id="_0fTlHpZT7rrA8FKsUC9-3" value="媒体流（视频）" style="rounded=0;whiteSpace=wrap;html=1;" parent="_0fTlHpZT7rrA8FKsUC9-1" vertex="1">
          <mxGeometry y="120" width="200" height="40" as="geometry" />
        </mxCell>
        <mxCell id="_0fTlHpZT7rrA8FKsUC9-5" value="&lt;font style=&quot;font-size: 20px;&quot;&gt;...&lt;/font&gt;" style="text;html=1;strokeColor=none;fillColor=none;align=center;verticalAlign=middle;whiteSpace=wrap;rounded=0;" parent="_0fTlHpZT7rrA8FKsUC9-1" vertex="1">
          <mxGeometry x="70" y="80" width="60" height="30" as="geometry" />
        </mxCell>
        <mxCell id="_0fTlHpZT7rrA8FKsUC9-6" value="&lt;font style=&quot;font-size: 20px;&quot;&gt;...&lt;/font&gt;" style="text;html=1;strokeColor=none;fillColor=none;align=center;verticalAlign=middle;whiteSpace=wrap;rounded=0;" parent="_0fTlHpZT7rrA8FKsUC9-1" vertex="1">
          <mxGeometry x="70" y="160" width="60" height="30" as="geometry" />
        </mxCell>
        <mxCell id="_0fTlHpZT7rrA8FKsUC9-7" value="" style="rounded=0;whiteSpace=wrap;html=1;" parent="_0fTlHpZT7rrA8FKsUC9-1" vertex="1">
          <mxGeometry y="40" width="40" height="40" as="geometry" />
        </mxCell>
        <mxCell id="_0fTlHpZT7rrA8FKsUC9-9" value="" style="whiteSpace=wrap;html=1;aspect=fixed;" parent="_0fTlHpZT7rrA8FKsUC9-1" vertex="1">
          <mxGeometry y="120" width="40" height="40" as="geometry" />
        </mxCell>
        <mxCell id="_0fTlHpZT7rrA8FKsUC9-8" value="数据帧" style="text;html=1;strokeColor=none;fillColor=none;align=center;verticalAlign=middle;whiteSpace=wrap;rounded=0;" parent="1" vertex="1">
          <mxGeometry x="-130" y="570" width="60" height="30" as="geometry" />
        </mxCell>
        <mxCell id="_0fTlHpZT7rrA8FKsUC9-10" value="数据帧" style="text;html=1;strokeColor=none;fillColor=none;align=center;verticalAlign=middle;whiteSpace=wrap;rounded=0;" parent="1" vertex="1">
          <mxGeometry x="-130" y="650" width="60" height="30" as="geometry" />
        </mxCell>
      </root>
    </mxGraphModel>
  </diagram>
</mxfile>
